<?xml version="1.0" standalone="no"?><!DOCTYPE svg PUBLIC "-//W3C//DTD SVG 1.1//EN" "http://www.w3.org/Graphics/SVG/1.1/DTD/svg11.dtd" [<!ENTITY nbsp " ">]><svg data-noselect=""
  viewBox="170.276162237047 54.27816772461 448.99999999999994 484.1262488922201"
  width="448.99999999999994"
  height="484.1262488922201"
  ref="svg_canvas"
  preserveAspectRatio="none"
  version="1.1" xmlns="http://www.w3.org/2000/svg"
  style="background: rgba(0,0,0,0);">
    <defs></defs>
    <g id="shape_JZfIU9uh3q" class="icon"  ref="shape_JZfIU9uh3q" key="shape_JZfIU9uh3q" transform="translate(308.62436083620014,134.27816772461) rotate(0,92.867812399435,92.867812399435) scale(1,1)" style="cursor:move;display:inline;opacity:1;" filter="">
            <g style="display:inline"><rect fill="rgba(255,255,255,0)" width="192.3036028016898" height="205.73562479887" x="-10" y="-10"></rect><svg version="1.1" id="图层_1" xmlns="http://www.w3.org/2000/svg" xmlns:xlink="http://www.w3.org/1999/xlink" x="0px" y="0px" viewBox="0 0 193.70001220703125 208.8000030517578" style="enable-background:new 0 0 193.7 208.8;" xml:space="preserve" width="172.3036028016898" height="185.73562479887" class="style-removed" preserveAspectRatio="none" data-parent="shape_JZfIU9uh3q">

<g>
	<g>
		<path d="M143.1,0L76.3,41.9L61,80l-31.4-8.8L0,89.7v1l35.2,56.4l0.7,61.7h3.6l-0.3-63.2l-0.1,0L4.6,91.7l23.6-14.5
			L50,105.8l9.6-4.2L88,40.5L139.6,9L73.3,136l-0.1,0l0.6,72.7h106.9v-76.2l13-17V31.2L143.1,0z" fill="#FF8C00"></path>
	</g>
</g>
</svg></g>
        </g><g id="shape_RwMyvYnIc6" class="brand_name"  ref="shape_RwMyvYnIc6" key="shape_RwMyvYnIc6" transform="translate(167.156162237047,64.58932954033997) rotate(0,423.23968615713,308.55416) scale(1,1)" style="cursor:move;display:inline;opacity:1;" filter="">
            <g style="display:inline"><svg xmlns="http://www.w3.org/2000/svg" version="1.1" xmlns:xlink="http://www.w3.org/1999/xlink" width="621.48" height="617.10832" viewBox="0 0 621.48 617.10832" preserveAspectRatio="none" data-parent="shape_RwMyvYnIc6"><rect fill="rgba(0,0,0,0)" width="289" height="83" x="83.12" y="267.05416"></rect><g data-width="288.1491999975938" transform="translate(83.54540000120309, 0)"><path d="M57.27-55.36L57.10-55.52Q56.44-56.19 56.90-56.90Q57.35-57.60 57.93-57.93L57.93-57.93Q58.77-58.35 59.68-58.27Q60.59-58.18 61.43-57.93L61.43-57.93Q62.67-57.52 63.84-56.56Q65.00-55.61 65.66-54.40Q66.33-53.20 66.33-51.87Q66.33-50.54 65.33-49.29L65.33-49.29Q64.58-48.38 63.46-48.33Q62.34-48.29 61.34-48.71L61.34-48.71Q60.35-49.12 59.93-50.00Q59.51-50.87 59.26-51.78L59.26-51.78Q59.10-51.95 59.06-52.20Q59.02-52.45 58.93-52.61L58.93-52.61Q58.93-52.78 58.85-52.86L58.85-52.86Q58.85-52.86 58.77-53.03L58.77-53.03L57.85-54.53L57.27-55.27L57.27-55.36ZM63.50-17.87L63.50-17.87Q65.33-18.87 67.24-18.83Q69.16-18.79 70.69-17.91Q72.23-17.04 73.15-15.42Q74.06-13.80 73.98-11.64L73.98-11.64Q73.81-9.14 72.40-7.07Q70.98-4.99 68.91-3.41Q66.83-1.83 64.38-0.87Q61.92 0.08 59.76 0.33L59.76 0.33Q55.11 0.91 52.24-0.75Q49.37-2.41 47.96-5.44Q46.55-8.48 46.30-12.47Q46.05-16.46 46.55-20.57Q47.05-24.69 48.08-28.51Q49.12-32.33 50.29-35.08L50.29-35.08Q49.79-35.08 49.25-35.12Q48.71-35.16 48.13-35.24L48.13-35.24Q47.71-32.17 47.09-29.51Q46.46-26.85 45.63-24.52L45.63-24.52Q44.88-22.36 43.35-19.91Q41.81-17.46 39.81-15.83Q37.82-14.21 35.45-13.88Q33.08-13.55 30.75-15.71L30.75-15.71Q30.01-16.37 29.88-17.33Q29.76-18.29 30.09-19.12Q30.42-19.95 31.17-20.53Q31.92-21.11 32.92-21.11L32.92-21.11Q34.91-21.11 36.37-22.98Q37.82-24.85 38.82-27.43Q39.81-30.01 40.44-32.75Q41.06-35.49 41.48-37.24L41.48-37.24Q38.48-38.65 36.37-41.02Q34.25-43.39 33.66-46.55L33.66-46.55Q33.58-46.96 33.87-47.25Q34.16-47.54 34.58-47.38L34.58-47.38Q36.66-46.46 38.44-45.26Q40.23-44.05 42.39-43.31L42.39-43.31Q42.81-47.05 43.10-50.66Q43.39-54.28 44.22-58.02L44.22-58.02Q44.30-58.43 44.80-58.47Q45.30-58.52 45.47-58.10L45.47-58.10Q47.13-54.94 47.88-50.91Q48.63-46.88 48.63-42.39L48.63-42.39Q50.79-42.56 52.78-43.01Q54.78-43.47 57.10-43.97L57.10-43.97Q58.60-44.30 59.68-43.68Q60.76-43.06 61.26-41.98Q61.76-40.90 61.51-39.69Q61.26-38.48 60.01-37.65L60.01-37.65Q58.52-36.49 56.65-35.91Q54.78-35.33 52.61-35.16L52.61-35.16Q52.45-29.67 51.87-24.31Q51.29-18.95 51.70-13.47L51.70-13.47Q52.12-8.48 54.86-6.69Q57.60-4.90 61.92-6.90L61.92-6.90Q65.25-8.40 65.54-10.85Q65.83-13.30 63.17-15.63L63.17-15.63Q62.59-16.04 62.76-16.79Q62.92-17.54 63.50-17.87ZM28.26-14.46L28.26-14.96Q28.59-13.22 28.51-13.38Q28.43-13.55 28.26-14.46L28.26-14.46ZM25.52-25.10L25.52-25.10Q25.77-22.69 26.39-20.66Q27.01-18.62 27.76-16.37L27.76-16.37Q27.93-15.96 28.01-15.46Q28.09-14.96 28.26-14.46L28.26-14.46Q28.34-13.38 27.97-12.47Q27.60-11.55 26.85-10.97Q26.10-10.39 25.10-10.27Q24.10-10.14 23.02-10.64L23.02-10.64Q21.36-11.39 20.41-12.97Q19.45-14.55 18.95-16.46Q18.45-18.37 18.37-20.36Q18.29-22.36 18.29-23.94L18.29-23.94Q18.29-26.27 18.62-28.76Q18.95-31.25 19.62-33.66L19.62-33.66Q16.87-32.33 14.05-32.58L14.05-32.58Q13.05-32.75 12.22-33.50Q11.39-34.25 11.14-35.16L11.14-35.16Q11.14-35.41 11.05-35.49L11.05-35.49Q10.89-36.41 11.05-37.32Q11.22-38.24 11.89-38.90L11.89-38.90Q12.80-39.81 13.80-40.06Q14.80-40.31 15.88-40.90L15.88-40.90Q17.04-41.56 18.16-42.35Q19.28-43.14 20.28-43.97L20.28-43.97Q22.44-45.72 24.06-47.75Q25.68-49.79 27.26-52.03L27.26-52.03Q27.43-52.37 27.76-52.70L27.76-52.70Q28.43-53.36 29.30-53.07Q30.17-52.78 30.34-51.95L30.34-51.95Q31.09-48.63 29.59-44.84Q28.09-41.06 25.35-38.07L25.35-38.07Q25.52-34.83 25.35-31.59Q25.19-28.34 25.52-25.10Z" transform="translate(0 336.05416) " fill="#ff8c00" stroke="#ff8c00" stroke-width="10.1115" stroke-miterlimit="3" data-glyph-w="72.03729999939846" data-glyph-h="117.78104" data-glyph-ascender="86.69416" data-glyph-descender="-31.08688"></path><path d="M67.08-10.39L67.08-10.39Q68.16-10.06 68.74-9.23Q69.32-8.40 69.32-7.48Q69.32-6.57 68.78-5.74Q68.24-4.90 67.16-4.49L67.16-4.49Q65.66-3.91 64.04-4.03Q62.42-4.16 60.80-4.74Q59.18-5.32 57.77-6.23Q56.36-7.15 55.27-8.31L55.27-8.31Q54.36-9.23 53.40-10.47Q52.45-11.72 51.62-13.13Q50.79-14.55 50.33-16.04Q49.87-17.54 49.96-18.87L49.96-18.87Q49.96-19.28 50.29-19.49Q50.62-19.70 51.04-19.53L51.04-19.53Q52.03-19.20 52.91-18.54Q53.78-17.87 54.57-17.04Q55.36-16.21 56.15-15.38Q56.94-14.55 57.77-13.80L57.77-13.80Q58.85-12.88 59.97-12.38Q61.09-11.89 62.26-11.60Q63.42-11.30 64.63-11.05Q65.83-10.81 67.08-10.39ZM28.76-16.54L28.76-16.54Q29.76-16.87 30.09-15.88L30.09-15.88Q30.67-13.96 29.72-11.80Q28.76-9.64 27.01-8.06Q25.27-6.48 23.07-5.82Q20.86-5.15 18.95-6.23L18.95-6.23Q18.04-6.82 17.58-7.77Q17.12-8.73 17.46-9.73L17.46-9.73Q17.79-10.81 18.41-11.26Q19.03-11.72 19.78-11.93Q20.53-12.14 21.40-12.26Q22.28-12.38 23.02-12.80L23.02-12.80Q24.60-13.63 25.89-14.67Q27.18-15.71 28.76-16.54ZM59.43-27.85L59.43-27.85Q55.61-27.68 51.66-27.06Q47.71-26.43 43.72-26.02L43.72-26.02Q43.89-23.11 44.22-20.12Q44.55-17.12 44.80-14.17Q45.05-11.22 45.01-8.35Q44.97-5.49 44.39-2.74L44.39-2.74Q44.14-1.75 42.97-1.62Q41.81-1.50 41.39-2.41L41.39-2.41Q40.15-4.90 39.52-7.77Q38.90-10.64 38.73-13.63Q38.57-16.62 38.65-19.66Q38.73-22.69 38.90-25.52L38.90-25.52Q34.41-25.27 30.09-25.77Q25.77-26.27 21.53-28.34L21.53-28.34Q21.03-28.43 20.86-28.80Q20.70-29.18 20.78-29.59Q20.86-30.01 21.15-30.30Q21.44-30.59 21.94-30.59L21.94-30.59Q26.35-30.42 30.59-30.51Q34.83-30.59 39.07-31.09L39.07-31.09Q39.23-36.82 39.77-42.64Q40.31-48.46 42.47-53.70L42.47-53.70Q42.64-54.19 43.22-54.24Q43.80-54.28 43.89-53.61L43.89-53.61Q44.64-48.13 44.26-42.64Q43.89-37.15 43.72-31.67L43.72-31.67Q44.39-31.83 45.13-31.92Q45.88-32.00 46.55-32.17L46.55-32.17Q48.13-32.42 50.08-32.87Q52.03-33.33 54.03-33.62Q56.02-33.91 57.89-33.91Q59.76-33.91 61.26-33.25L61.26-33.25Q62.01-32.92 62.30-32.04Q62.59-31.17 62.42-30.51L62.42-30.51Q62.34-30.42 62.34-30.09L62.34-30.09Q62.01-29.09 61.22-28.51Q60.43-27.93 59.43-27.85ZM48.54-38.48L48.54-38.48Q47.63-38.07 47.09-38.86Q46.55-39.65 46.71-40.48L46.71-40.48Q47.13-42.39 47.96-43.97Q48.79-45.55 49.96-47.21L49.96-47.21Q50.87-48.63 51.87-50.04Q52.86-51.45 54.28-52.45L54.28-52.45Q54.69-52.61 55.19-52.57Q55.69-52.53 55.94-52.12L55.94-52.12Q56.52-51.37 56.60-50.41Q56.69-49.46 56.44-48.46Q56.19-47.46 55.73-46.51Q55.27-45.55 54.94-44.80L54.94-44.80Q53.86-42.56 52.37-41.02Q50.87-39.48 48.54-38.48ZM25.60-43.97L25.60-43.97Q25.43-44.39 25.39-44.80Q25.35-45.22 25.27-45.63L25.27-45.63L25.27-46.05Q25.27-46.96 25.77-47.59Q26.27-48.21 26.97-48.46Q27.68-48.71 28.47-48.63Q29.26-48.54 29.92-47.96L29.92-47.96Q30.75-47.21 31.46-46.30Q32.17-45.38 32.83-44.47L32.83-44.47Q33.50-43.55 34.20-42.77Q34.91-41.98 35.33-40.81L35.33-40.81Q35.58-40.15 35.41-39.44Q35.24-38.73 34.79-38.15Q34.33-37.57 33.71-37.20Q33.08-36.82 32.33-36.82L32.33-36.82Q30.42-36.99 29.22-38.19Q28.01-39.40 27.01-40.90L27.01-40.90Q26.60-41.56 26.18-42.31Q25.77-43.06 25.60-43.97Z" transform="translate(72.03729999939846 336.05416) " fill="#ff8c00" stroke="#ff8c00" stroke-width="10.1115" stroke-miterlimit="3" data-glyph-w="72.03729999939846" data-glyph-h="117.78104" data-glyph-ascender="86.69416" data-glyph-descender="-31.08688"></path><path d="M50.95-9.81L50.95-9.81Q51.29-11.55 50.20-12.51Q49.12-13.47 47.30-13.92Q45.47-14.38 43.35-14.38Q41.23-14.38 39.57-14.13L39.57-14.13Q39.65-13.47 39.69-12.76Q39.73-12.05 39.90-11.39L39.90-11.39Q40.06-10.22 40.40-9.10Q40.73-7.98 41.06-6.82L41.06-6.82Q42.47-6.57 44.14-6.57Q45.80-6.57 47.21-6.86Q48.63-7.15 49.66-7.85Q50.70-8.56 50.95-9.81ZM47.30-18.29L47.30-18.29Q50.79-17.87 53.20-15.96Q55.61-14.05 56.27-10.47L56.27-10.47Q57.10-5.98 54.57-3.32Q52.03-0.66 47.79 0.17L47.79 0.17Q46.55 0.42 44.59 0.58Q42.64 0.75 40.69 0.54Q38.73 0.33 37.20-0.42Q35.66-1.16 35.16-2.74L35.16-2.74Q34.49-4.24 34.12-6.32Q33.75-8.40 33.83-10.47Q33.91-12.55 34.62-14.46Q35.33-16.37 36.74-17.54L36.74-17.54Q37.40-18.12 37.94-17.91Q38.48-17.70 38.82-17.21L38.82-17.21L38.90-17.21Q39.81-17.62 41.02-17.87Q42.22-18.12 43.39-18.24Q44.55-18.37 45.59-18.37Q46.63-18.37 47.30-18.29ZM36.99-21.69L36.99-21.69Q36.32-20.20 35.41-18.66Q34.49-17.12 33.00-16.29L33.00-16.29Q31.75-15.63 30.42-16.13Q29.09-16.62 28.68-18.04L28.68-18.04Q28.26-19.12 28.93-20.28L28.93-20.28Q28.93-20.45 29.09-20.45L29.09-20.45Q29.18-20.78 29.51-21.11L29.51-21.11Q30.17-21.94 31.00-22.61Q31.83-23.27 32.58-24.02L32.58-24.02Q33.41-24.85 34.16-25.81Q34.91-26.76 36.07-27.18L36.07-27.18Q36.49-27.35 36.78-27.14Q37.07-26.93 37.24-26.68L37.24-26.68Q37.90-25.60 37.65-24.19Q37.40-22.77 36.99-21.69ZM24.60-20.20L24.60-20.20Q24.77-17.54 25.14-14.88Q25.52-12.22 26.35-9.73L26.35-9.73Q26.68-8.56 26.35-7.65Q26.02-6.73 25.27-6.15Q24.52-5.57 23.48-5.44Q22.44-5.32 21.44-5.74L21.44-5.74Q19.95-6.40 19.16-7.85Q18.37-9.31 18.12-11.05Q17.87-12.80 17.91-14.59Q17.95-16.37 18.04-17.70L18.04-17.70Q18.12-19.28 18.37-21.07Q18.62-22.86 19.12-24.60Q19.62-26.35 20.49-27.89Q21.36-29.42 22.69-30.51L22.69-30.51Q23.44-31.09 23.86-30.17L23.86-30.17Q24.69-27.76 24.56-25.19Q24.44-22.61 24.60-20.20ZM44.30-40.48L44.30-40.48Q44.47-40.90 44.55-41.35Q44.64-41.81 44.72-42.22L44.72-42.22Q41.89-41.98 39.07-42.02Q36.24-42.06 33.50-42.47L33.50-42.47Q33.58-41.98 33.66-41.56Q33.75-41.14 33.83-40.81L33.83-40.81Q34.33-39.15 35.24-37.74Q36.16-36.32 36.57-34.66L36.57-34.66Q37.99-35.08 39.48-35.37Q40.98-35.66 42.56-35.82L42.56-35.82Q42.81-37.07 43.39-38.19Q43.97-39.32 44.30-40.48ZM66.08-31.75L66.08-31.75Q69.07-29.51 70.40-25.48Q71.73-21.44 71.57-17.04Q71.40-12.63 69.82-8.64Q68.24-4.65 65.33-2.49L65.33-2.49Q64.00-1.58 62.55-2.04Q61.09-2.49 60.18-3.66L60.18-3.66L59.93-3.99Q59.26-4.90 59.43-6.07Q59.60-7.23 60.35-7.98L60.35-7.98Q62.26-9.89 63.42-12.88Q64.58-15.88 65.00-18.45L65.00-18.45Q65.42-20.78 64.83-22.73Q64.25-24.69 62.92-26.18Q61.59-27.68 59.72-28.68Q57.85-29.67 55.69-30.09L55.69-30.09Q53.36-30.51 51.16-30.67Q48.96-30.84 46.80-30.75L46.80-30.75Q46.88-30.59 46.96-30.38Q47.05-30.17 47.21-29.84L47.21-29.84Q48.29-27.68 50.20-26.10L50.20-26.10Q52.03-24.60 54.24-23.81Q56.44-23.02 58.10-21.36L58.10-21.36Q58.60-20.86 58.47-20.24Q58.35-19.62 57.77-19.20L57.77-19.20Q56.52-18.29 55.15-18.33Q53.78-18.37 52.45-18.91Q51.12-19.45 49.87-20.32Q48.63-21.20 47.71-22.11L47.71-22.11Q46.71-23.11 45.88-24.23Q45.05-25.35 44.47-26.68L44.47-26.68Q43.80-27.93 43.55-29.18L43.55-29.18Q43.55-29.09 43.47-29.67Q43.39-30.26 43.39-30.67L43.39-30.67Q39.90-30.42 36.41-30.13Q32.92-29.84 29.34-30.01L29.34-30.01Q28.68-30.01 28.63-30.55Q28.59-31.09 29.01-31.42L29.01-31.42L30.75-32.42Q29.18-34.58 28.55-37.69Q27.93-40.81 28.84-43.47L28.84-43.47Q25.77-44.39 22.94-45.88Q20.12-47.38 17.70-49.54L17.70-49.54Q17.21-50.04 17.21-50.54Q17.21-51.04 17.50-51.41Q17.79-51.78 18.29-51.95Q18.79-52.12 19.28-52.03L19.28-52.03L19.28-52.12Q23.77-50.45 27.89-50.00Q32.00-49.54 36.24-49.71L36.24-49.71Q35.91-50.37 35.62-51.04Q35.33-51.70 34.91-52.37L34.91-52.37Q34.49-53.11 34.12-53.86Q33.75-54.61 33.33-55.36L33.33-55.36Q33.08-55.77 32.87-56.27Q32.67-56.77 32.42-57.02L32.42-57.02Q31.75-57.60 31.88-58.35Q32.00-59.10 32.42-59.60L32.42-59.60Q33.16-60.43 34.16-60.51Q35.16-60.59 36.20-60.26Q37.24-59.93 38.15-59.31Q39.07-58.68 39.73-58.18L39.73-58.18Q41.48-56.77 42.93-54.69Q44.39-52.61 44.39-50.45L44.39-50.45Q47.05-50.79 49.87-51.20Q52.70-51.62 55.61-51.78L55.61-51.78Q57.19-51.87 58.14-50.95Q59.10-50.04 59.26-48.79Q59.43-47.54 58.85-46.30Q58.27-45.05 56.85-44.64L56.85-44.64Q55.03-44.05 53.11-43.60Q51.20-43.14 49.21-42.81L49.21-42.81Q49.29-42.14 49.33-41.60Q49.37-41.06 49.37-40.56L49.37-40.56Q49.54-38.40 48.87-36.24L48.87-36.24Q53.86-36.16 58.43-35.12Q63.00-34.08 66.08-31.75Z" transform="translate(144.0745999987969 336.05416) " fill="#ff8c00" stroke="#ff8c00" stroke-width="10.1115" stroke-miterlimit="3" data-glyph-w="72.03729999939846" data-glyph-h="117.78104" data-glyph-ascender="86.69416" data-glyph-descender="-31.08688"></path><path d="M68.57-46.80L68.57-46.80Q67.66-46.63 67.04-46.96Q66.41-47.30 66.00-47.92Q65.58-48.54 65.29-49.29Q65.00-50.04 64.75-50.70L64.75-50.70Q64.17-52.12 63.34-53.53Q62.51-54.94 62.51-56.44L62.51-56.44Q62.51-57.02 62.96-57.44Q63.42-57.85 64.00-57.77L64.00-57.77Q64.83-57.77 65.71-57.27Q66.58-56.77 67.33-56.06Q68.08-55.36 68.70-54.57Q69.32-53.78 69.74-53.11L69.74-53.11Q70.15-52.37 70.49-51.37Q70.82-50.37 70.78-49.41Q70.74-48.46 70.24-47.75Q69.74-47.05 68.57-46.80ZM74.72-6.48L74.72-6.48Q74.89-5.24 74.85-3.99Q74.81-2.74 74.35-1.70Q73.89-0.66 72.90-0.04Q71.90 0.58 70.32 0.58L70.32 0.58Q68.41 0.58 66.87-0.50Q65.33-1.58 64.09-3.24L64.09-3.24Q62.51-1.33 60.22-0.08Q57.93 1.16 55.44 0.75L55.44 0.75Q53.78 0.42 52.53-0.75Q51.29-1.91 51.53-3.74L51.53-3.74Q51.62-4.32 52.03-4.86Q52.45-5.40 53.11-5.32L53.11-5.32Q55.27-4.99 57.19-6.32Q59.10-7.65 60.51-9.56L60.51-9.56Q57.85-15.79 56.73-22.61Q55.61-29.42 55.69-36.66L55.69-36.66Q54.28-36.82 52.99-36.99Q51.70-37.15 50.62-37.32L50.62-37.32Q48.04-37.82 45.63-38.90Q43.22-39.98 41.23-41.64L41.23-41.64Q42.14-38.73 42.56-35.62Q42.97-32.50 42.97-29.34L42.97-29.34Q45.22-29.92 47.42-29.47Q49.62-29.01 51.45-27.80Q53.28-26.60 54.57-24.69Q55.86-22.77 56.19-20.36L56.19-20.36Q56.52-18.04 55.94-15.29Q55.36-12.55 53.99-10.14Q52.61-7.73 50.54-6.03Q48.46-4.32 45.80-4.07L45.80-4.07Q44.72-3.91 43.60-4.70Q42.47-5.49 42.22-6.65L42.22-6.65Q42.22-6.82 42.18-6.90Q42.14-6.98 42.14-7.15L42.14-7.15Q41.73-9.06 42.93-10.35Q44.14-11.64 46.05-11.30L46.05-11.30Q47.05-11.14 47.96-12.14Q48.87-13.13 49.62-14.46Q50.37-15.79 50.87-17.16Q51.37-18.54 51.53-19.12L51.53-19.12Q51.95-21.36 51.29-22.73Q50.62-24.10 49.33-24.89Q48.04-25.68 46.30-26.02Q44.55-26.35 42.81-26.52L42.81-26.52Q42.56-22.28 41.60-18.16Q40.65-14.05 39.15-10.47L39.15-10.47Q38.48-8.98 37.15-8.81Q35.82-8.64 34.66-9.31Q33.50-9.97 32.96-11.26Q32.42-12.55 33.33-13.88L33.33-13.88Q34.99-17.87 36.03-21.82Q37.07-25.77 37.40-30.01L37.40-30.01Q37.74-34.25 37.45-38.28Q37.15-42.31 37.65-46.38L37.65-46.38Q37.74-46.96 38.28-47.13Q38.82-47.30 39.15-46.71L39.15-46.71Q40.06-46.88 40.77-46.51Q41.48-46.13 42.64-45.63L42.64-45.63Q46.71-43.80 51.29-43.39L51.29-43.39Q53.45-43.22 55.94-43.64L55.94-43.64Q56.27-47.21 56.77-50.66Q57.27-54.11 58.02-57.35L58.02-57.35Q58.18-58.02 58.97-57.98Q59.76-57.93 59.85-57.27L59.85-57.27Q60.26-54.03 60.30-50.74Q60.35-47.46 60.43-44.22L60.43-44.22Q62.42-44.39 64.29-44.18Q66.16-43.97 67.58-42.89L67.58-42.89Q68.16-42.47 68.45-41.64Q68.74-40.81 68.24-40.15L68.24-40.15Q66.99-38.48 65.00-37.69Q63.00-36.91 60.76-36.66L60.76-36.66Q60.93-33.91 61.26-31.09L61.26-31.09Q61.76-27.35 62.51-23.77Q63.25-20.20 64.50-16.71L64.50-16.71Q65.42-18.87 66.21-21.07Q66.99-23.27 68.16-25.19L68.16-25.19Q68.41-25.60 68.86-25.52Q69.32-25.43 69.49-25.02L69.49-25.02Q70.24-21.28 69.74-17.21Q69.24-13.13 67.74-9.39L67.74-9.39Q68.74-7.56 69.82-6.61Q70.90-5.65 71.73-6.98L71.73-6.98Q71.98-7.40 72.44-7.56Q72.90-7.73 73.39-7.65Q73.89-7.56 74.27-7.27Q74.64-6.98 74.72-6.48ZM29.26-23.94L29.26-23.94Q30.01-24.60 30.88-24.65Q31.75-24.69 32.46-24.31Q33.16-23.94 33.54-23.19Q33.91-22.44 33.66-21.44L33.66-21.44Q32.83-18.54 30.26-16.46Q27.68-14.38 24.40-13.42Q21.11-12.47 17.70-12.72Q14.30-12.97 11.89-14.71L11.89-14.71Q11.47-14.96 11.60-15.42Q11.72-15.88 12.14-16.04L12.14-16.04Q14.30-16.54 16.33-16.83Q18.37-17.12 20.28-17.87L20.28-17.87Q19.78-18.37 19.70-18.62L19.70-18.62Q18.20-21.20 18.33-24.60Q18.45-28.01 18.79-31.09L18.79-31.09Q15.04-33.66 13.22-37.40L13.22-37.40Q12.72-38.40 13.42-39.40Q14.13-40.40 15.29-39.98L15.29-39.98Q16.46-39.57 17.54-39.07Q18.62-38.57 19.70-38.07L19.70-38.07Q20.12-40.23 20.82-42.22Q21.53-44.22 22.69-45.88L22.69-45.88Q23.02-46.30 23.52-46.21Q24.02-46.13 24.19-45.55L24.19-45.55Q24.85-43.39 24.94-41.06Q25.02-38.73 25.02-36.32L25.02-36.32Q25.93-36.16 26.89-36.20Q27.85-36.24 28.84-36.16L28.84-36.16Q29.76-36.16 30.75-35.74Q31.75-35.33 32.17-34.41L32.17-34.41Q32.42-33.91 32.50-33.50Q32.58-33.08 32.75-32.50L32.75-32.50Q32.92-31.34 32.04-30.30Q31.17-29.26 30.09-28.84L30.09-28.84Q27.85-28.01 25.35-28.43L25.35-28.43Q25.52-26.52 25.68-24.65Q25.85-22.77 25.68-20.95L25.68-20.95Q26.60-21.61 27.47-22.40Q28.34-23.19 29.26-23.94Z" transform="translate(216.11189999819538 336.05416) " fill="#ff8c00" stroke="#ff8c00" stroke-width="10.1115" stroke-miterlimit="3" data-glyph-w="72.03729999939846" data-glyph-h="117.78104" data-glyph-ascender="86.69416" data-glyph-descender="-31.08688"></path></g><g data-width="288.1491999975938" transform="translate(83.54540000120309, 0)"><path d="M57.27-55.36L57.10-55.52Q56.44-56.19 56.90-56.90Q57.35-57.60 57.93-57.93L57.93-57.93Q58.77-58.35 59.68-58.27Q60.59-58.18 61.43-57.93L61.43-57.93Q62.67-57.52 63.84-56.56Q65.00-55.61 65.66-54.40Q66.33-53.20 66.33-51.87Q66.33-50.54 65.33-49.29L65.33-49.29Q64.58-48.38 63.46-48.33Q62.34-48.29 61.34-48.71L61.34-48.71Q60.35-49.12 59.93-50.00Q59.51-50.87 59.26-51.78L59.26-51.78Q59.10-51.95 59.06-52.20Q59.02-52.45 58.93-52.61L58.93-52.61Q58.93-52.78 58.85-52.86L58.85-52.86Q58.85-52.86 58.77-53.03L58.77-53.03L57.85-54.53L57.27-55.27L57.27-55.36ZM63.50-17.87L63.50-17.87Q65.33-18.87 67.24-18.83Q69.16-18.79 70.69-17.91Q72.23-17.04 73.15-15.42Q74.06-13.80 73.98-11.64L73.98-11.64Q73.81-9.14 72.40-7.07Q70.98-4.99 68.91-3.41Q66.83-1.83 64.38-0.87Q61.92 0.08 59.76 0.33L59.76 0.33Q55.11 0.91 52.24-0.75Q49.37-2.41 47.96-5.44Q46.55-8.48 46.30-12.47Q46.05-16.46 46.55-20.57Q47.05-24.69 48.08-28.51Q49.12-32.33 50.29-35.08L50.29-35.08Q49.79-35.08 49.25-35.12Q48.71-35.16 48.13-35.24L48.13-35.24Q47.71-32.17 47.09-29.51Q46.46-26.85 45.63-24.52L45.63-24.52Q44.88-22.36 43.35-19.91Q41.81-17.46 39.81-15.83Q37.82-14.21 35.45-13.88Q33.08-13.55 30.75-15.71L30.75-15.71Q30.01-16.37 29.88-17.33Q29.76-18.29 30.09-19.12Q30.42-19.95 31.17-20.53Q31.92-21.11 32.92-21.11L32.92-21.11Q34.91-21.11 36.37-22.98Q37.82-24.85 38.82-27.43Q39.81-30.01 40.44-32.75Q41.06-35.49 41.48-37.24L41.48-37.24Q38.48-38.65 36.37-41.02Q34.25-43.39 33.66-46.55L33.66-46.55Q33.58-46.96 33.87-47.25Q34.16-47.54 34.58-47.38L34.58-47.38Q36.66-46.46 38.44-45.26Q40.23-44.05 42.39-43.31L42.39-43.31Q42.81-47.05 43.10-50.66Q43.39-54.28 44.22-58.02L44.22-58.02Q44.30-58.43 44.80-58.47Q45.30-58.52 45.47-58.10L45.47-58.10Q47.13-54.94 47.88-50.91Q48.63-46.88 48.63-42.39L48.63-42.39Q50.79-42.56 52.78-43.01Q54.78-43.47 57.10-43.97L57.10-43.97Q58.60-44.30 59.68-43.68Q60.76-43.06 61.26-41.98Q61.76-40.90 61.51-39.69Q61.26-38.48 60.01-37.65L60.01-37.65Q58.52-36.49 56.65-35.91Q54.78-35.33 52.61-35.16L52.61-35.16Q52.45-29.67 51.87-24.31Q51.29-18.95 51.70-13.47L51.70-13.47Q52.12-8.48 54.86-6.69Q57.60-4.90 61.92-6.90L61.92-6.90Q65.25-8.40 65.54-10.85Q65.83-13.30 63.17-15.63L63.17-15.63Q62.59-16.04 62.76-16.79Q62.92-17.54 63.50-17.87ZM28.26-14.46L28.26-14.96Q28.59-13.22 28.51-13.38Q28.43-13.55 28.26-14.46L28.26-14.46ZM25.52-25.10L25.52-25.10Q25.77-22.69 26.39-20.66Q27.01-18.62 27.76-16.37L27.76-16.37Q27.93-15.96 28.01-15.46Q28.09-14.96 28.26-14.46L28.26-14.46Q28.34-13.38 27.97-12.47Q27.60-11.55 26.85-10.97Q26.10-10.39 25.10-10.27Q24.10-10.14 23.02-10.64L23.02-10.64Q21.36-11.39 20.41-12.97Q19.45-14.55 18.95-16.46Q18.45-18.37 18.37-20.36Q18.29-22.36 18.29-23.94L18.29-23.94Q18.29-26.27 18.62-28.76Q18.95-31.25 19.62-33.66L19.62-33.66Q16.87-32.33 14.05-32.58L14.05-32.58Q13.05-32.75 12.22-33.50Q11.39-34.25 11.14-35.16L11.14-35.16Q11.14-35.41 11.05-35.49L11.05-35.49Q10.89-36.41 11.05-37.32Q11.22-38.24 11.89-38.90L11.89-38.90Q12.80-39.81 13.80-40.06Q14.80-40.31 15.88-40.90L15.88-40.90Q17.04-41.56 18.16-42.35Q19.28-43.14 20.28-43.97L20.28-43.97Q22.44-45.72 24.06-47.75Q25.68-49.79 27.26-52.03L27.26-52.03Q27.43-52.37 27.76-52.70L27.76-52.70Q28.43-53.36 29.30-53.07Q30.17-52.78 30.34-51.95L30.34-51.95Q31.09-48.63 29.59-44.84Q28.09-41.06 25.35-38.07L25.35-38.07Q25.52-34.83 25.35-31.59Q25.19-28.34 25.52-25.10Z" transform="translate(0 336.05416) " fill="#FFFFFF" stroke="#FFFFFF" stroke-width="0.139" data-glyph-w="72.03729999939846" data-glyph-h="117.78104" data-glyph-ascender="86.69416" data-glyph-descender="-31.08688"></path><path d="M67.08-10.39L67.08-10.39Q68.16-10.06 68.74-9.23Q69.32-8.40 69.32-7.48Q69.32-6.57 68.78-5.74Q68.24-4.90 67.16-4.49L67.16-4.49Q65.66-3.91 64.04-4.03Q62.42-4.16 60.80-4.74Q59.18-5.32 57.77-6.23Q56.36-7.15 55.27-8.31L55.27-8.31Q54.36-9.23 53.40-10.47Q52.45-11.72 51.62-13.13Q50.79-14.55 50.33-16.04Q49.87-17.54 49.96-18.87L49.96-18.87Q49.96-19.28 50.29-19.49Q50.62-19.70 51.04-19.53L51.04-19.53Q52.03-19.20 52.91-18.54Q53.78-17.87 54.57-17.04Q55.36-16.21 56.15-15.38Q56.94-14.55 57.77-13.80L57.77-13.80Q58.85-12.88 59.97-12.38Q61.09-11.89 62.26-11.60Q63.42-11.30 64.63-11.05Q65.83-10.81 67.08-10.39ZM28.76-16.54L28.76-16.54Q29.76-16.87 30.09-15.88L30.09-15.88Q30.67-13.96 29.72-11.80Q28.76-9.64 27.01-8.06Q25.27-6.48 23.07-5.82Q20.86-5.15 18.95-6.23L18.95-6.23Q18.04-6.82 17.58-7.77Q17.12-8.73 17.46-9.73L17.46-9.73Q17.79-10.81 18.41-11.26Q19.03-11.72 19.78-11.93Q20.53-12.14 21.40-12.26Q22.28-12.38 23.02-12.80L23.02-12.80Q24.60-13.63 25.89-14.67Q27.18-15.71 28.76-16.54ZM59.43-27.85L59.43-27.85Q55.61-27.68 51.66-27.06Q47.71-26.43 43.72-26.02L43.72-26.02Q43.89-23.11 44.22-20.12Q44.55-17.12 44.80-14.17Q45.05-11.22 45.01-8.35Q44.97-5.49 44.39-2.74L44.39-2.74Q44.14-1.75 42.97-1.62Q41.81-1.50 41.39-2.41L41.39-2.41Q40.15-4.90 39.52-7.77Q38.90-10.64 38.73-13.63Q38.57-16.62 38.65-19.66Q38.73-22.69 38.90-25.52L38.90-25.52Q34.41-25.27 30.09-25.77Q25.77-26.27 21.53-28.34L21.53-28.34Q21.03-28.43 20.86-28.80Q20.70-29.18 20.78-29.59Q20.86-30.01 21.15-30.30Q21.44-30.59 21.94-30.59L21.94-30.59Q26.35-30.42 30.59-30.51Q34.83-30.59 39.07-31.09L39.07-31.09Q39.23-36.82 39.77-42.64Q40.31-48.46 42.47-53.70L42.47-53.70Q42.64-54.19 43.22-54.24Q43.80-54.28 43.89-53.61L43.89-53.61Q44.64-48.13 44.26-42.64Q43.89-37.15 43.72-31.67L43.72-31.67Q44.39-31.83 45.13-31.92Q45.88-32.00 46.55-32.17L46.55-32.17Q48.13-32.42 50.08-32.87Q52.03-33.33 54.03-33.62Q56.02-33.91 57.89-33.91Q59.76-33.91 61.26-33.25L61.26-33.25Q62.01-32.92 62.30-32.04Q62.59-31.17 62.42-30.51L62.42-30.51Q62.34-30.42 62.34-30.09L62.34-30.09Q62.01-29.09 61.22-28.51Q60.43-27.93 59.43-27.85ZM48.54-38.48L48.54-38.48Q47.63-38.07 47.09-38.86Q46.55-39.65 46.71-40.48L46.71-40.48Q47.13-42.39 47.96-43.97Q48.79-45.55 49.96-47.21L49.96-47.21Q50.87-48.63 51.87-50.04Q52.86-51.45 54.28-52.45L54.28-52.45Q54.69-52.61 55.19-52.57Q55.69-52.53 55.94-52.12L55.94-52.12Q56.52-51.37 56.60-50.41Q56.69-49.46 56.44-48.46Q56.19-47.46 55.73-46.51Q55.27-45.55 54.94-44.80L54.94-44.80Q53.86-42.56 52.37-41.02Q50.87-39.48 48.54-38.48ZM25.60-43.97L25.60-43.97Q25.43-44.39 25.39-44.80Q25.35-45.22 25.27-45.63L25.27-45.63L25.27-46.05Q25.27-46.96 25.77-47.59Q26.27-48.21 26.97-48.46Q27.68-48.71 28.47-48.63Q29.26-48.54 29.92-47.96L29.92-47.96Q30.75-47.21 31.46-46.30Q32.17-45.38 32.83-44.47L32.83-44.47Q33.50-43.55 34.20-42.77Q34.91-41.98 35.33-40.81L35.33-40.81Q35.58-40.15 35.41-39.44Q35.24-38.73 34.79-38.15Q34.33-37.57 33.71-37.20Q33.08-36.82 32.33-36.82L32.33-36.82Q30.42-36.99 29.22-38.19Q28.01-39.40 27.01-40.90L27.01-40.90Q26.60-41.56 26.18-42.31Q25.77-43.06 25.60-43.97Z" transform="translate(72.03729999939846 336.05416) " fill="#FFFFFF" stroke="#FFFFFF" stroke-width="0.139" data-glyph-w="72.03729999939846" data-glyph-h="117.78104" data-glyph-ascender="86.69416" data-glyph-descender="-31.08688"></path><path d="M50.95-9.81L50.95-9.81Q51.29-11.55 50.20-12.51Q49.12-13.47 47.30-13.92Q45.47-14.38 43.35-14.38Q41.23-14.38 39.57-14.13L39.57-14.13Q39.65-13.47 39.69-12.76Q39.73-12.05 39.90-11.39L39.90-11.39Q40.06-10.22 40.40-9.10Q40.73-7.98 41.06-6.82L41.06-6.82Q42.47-6.57 44.14-6.57Q45.80-6.57 47.21-6.86Q48.63-7.15 49.66-7.85Q50.70-8.56 50.95-9.81ZM47.30-18.29L47.30-18.29Q50.79-17.87 53.20-15.96Q55.61-14.05 56.27-10.47L56.27-10.47Q57.10-5.98 54.57-3.32Q52.03-0.66 47.79 0.17L47.79 0.17Q46.55 0.42 44.59 0.58Q42.64 0.75 40.69 0.54Q38.73 0.33 37.20-0.42Q35.66-1.16 35.16-2.74L35.16-2.74Q34.49-4.24 34.12-6.32Q33.75-8.40 33.83-10.47Q33.91-12.55 34.62-14.46Q35.33-16.37 36.74-17.54L36.74-17.54Q37.40-18.12 37.94-17.91Q38.48-17.70 38.82-17.21L38.82-17.21L38.90-17.21Q39.81-17.62 41.02-17.87Q42.22-18.12 43.39-18.24Q44.55-18.37 45.59-18.37Q46.63-18.37 47.30-18.29ZM36.99-21.69L36.99-21.69Q36.32-20.20 35.41-18.66Q34.49-17.12 33.00-16.29L33.00-16.29Q31.75-15.63 30.42-16.13Q29.09-16.62 28.68-18.04L28.68-18.04Q28.26-19.12 28.93-20.28L28.93-20.28Q28.93-20.45 29.09-20.45L29.09-20.45Q29.18-20.78 29.51-21.11L29.51-21.11Q30.17-21.94 31.00-22.61Q31.83-23.27 32.58-24.02L32.58-24.02Q33.41-24.85 34.16-25.81Q34.91-26.76 36.07-27.18L36.07-27.18Q36.49-27.35 36.78-27.14Q37.07-26.93 37.24-26.68L37.24-26.68Q37.90-25.60 37.65-24.19Q37.40-22.77 36.99-21.69ZM24.60-20.20L24.60-20.20Q24.77-17.54 25.14-14.88Q25.52-12.22 26.35-9.73L26.35-9.73Q26.68-8.56 26.35-7.65Q26.02-6.73 25.27-6.15Q24.52-5.57 23.48-5.44Q22.44-5.32 21.44-5.74L21.44-5.74Q19.95-6.40 19.16-7.85Q18.37-9.31 18.12-11.05Q17.87-12.80 17.91-14.59Q17.95-16.37 18.04-17.70L18.04-17.70Q18.12-19.28 18.37-21.07Q18.62-22.86 19.12-24.60Q19.62-26.35 20.49-27.89Q21.36-29.42 22.69-30.51L22.69-30.51Q23.44-31.09 23.86-30.17L23.86-30.17Q24.69-27.76 24.56-25.19Q24.44-22.61 24.60-20.20ZM44.30-40.48L44.30-40.48Q44.47-40.90 44.55-41.35Q44.64-41.81 44.72-42.22L44.72-42.22Q41.89-41.98 39.07-42.02Q36.24-42.06 33.50-42.47L33.50-42.47Q33.58-41.98 33.66-41.56Q33.75-41.14 33.83-40.81L33.83-40.81Q34.33-39.15 35.24-37.74Q36.16-36.32 36.57-34.66L36.57-34.66Q37.99-35.08 39.48-35.37Q40.98-35.66 42.56-35.82L42.56-35.82Q42.81-37.07 43.39-38.19Q43.97-39.32 44.30-40.48ZM66.08-31.75L66.08-31.75Q69.07-29.51 70.40-25.48Q71.73-21.44 71.57-17.04Q71.40-12.63 69.82-8.64Q68.24-4.65 65.33-2.49L65.33-2.49Q64.00-1.58 62.55-2.04Q61.09-2.49 60.18-3.66L60.18-3.66L59.93-3.99Q59.26-4.90 59.43-6.07Q59.60-7.23 60.35-7.98L60.35-7.98Q62.26-9.89 63.42-12.88Q64.58-15.88 65.00-18.45L65.00-18.45Q65.42-20.78 64.83-22.73Q64.25-24.69 62.92-26.18Q61.59-27.68 59.72-28.68Q57.85-29.67 55.69-30.09L55.69-30.09Q53.36-30.51 51.16-30.67Q48.96-30.84 46.80-30.75L46.80-30.75Q46.88-30.59 46.96-30.38Q47.05-30.17 47.21-29.84L47.21-29.84Q48.29-27.68 50.20-26.10L50.20-26.10Q52.03-24.60 54.24-23.81Q56.44-23.02 58.10-21.36L58.10-21.36Q58.60-20.86 58.47-20.24Q58.35-19.62 57.77-19.20L57.77-19.20Q56.52-18.29 55.15-18.33Q53.78-18.37 52.45-18.91Q51.12-19.45 49.87-20.32Q48.63-21.20 47.71-22.11L47.71-22.11Q46.71-23.11 45.88-24.23Q45.05-25.35 44.47-26.68L44.47-26.68Q43.80-27.93 43.55-29.18L43.55-29.18Q43.55-29.09 43.47-29.67Q43.39-30.26 43.39-30.67L43.39-30.67Q39.90-30.42 36.41-30.13Q32.92-29.84 29.34-30.01L29.34-30.01Q28.68-30.01 28.63-30.55Q28.59-31.09 29.01-31.42L29.01-31.42L30.75-32.42Q29.18-34.58 28.55-37.69Q27.93-40.81 28.84-43.47L28.84-43.47Q25.77-44.39 22.94-45.88Q20.12-47.38 17.70-49.54L17.70-49.54Q17.21-50.04 17.21-50.54Q17.21-51.04 17.50-51.41Q17.79-51.78 18.29-51.95Q18.79-52.12 19.28-52.03L19.28-52.03L19.28-52.12Q23.77-50.45 27.89-50.00Q32.00-49.54 36.24-49.71L36.24-49.71Q35.91-50.37 35.62-51.04Q35.33-51.70 34.91-52.37L34.91-52.37Q34.49-53.11 34.12-53.86Q33.75-54.61 33.33-55.36L33.33-55.36Q33.08-55.77 32.87-56.27Q32.67-56.77 32.42-57.02L32.42-57.02Q31.75-57.60 31.88-58.35Q32.00-59.10 32.42-59.60L32.42-59.60Q33.16-60.43 34.16-60.51Q35.16-60.59 36.20-60.26Q37.24-59.93 38.15-59.31Q39.07-58.68 39.73-58.18L39.73-58.18Q41.48-56.77 42.93-54.69Q44.39-52.61 44.39-50.45L44.39-50.45Q47.05-50.79 49.87-51.20Q52.70-51.62 55.61-51.78L55.61-51.78Q57.19-51.87 58.14-50.95Q59.10-50.04 59.26-48.79Q59.43-47.54 58.85-46.30Q58.27-45.05 56.85-44.64L56.85-44.64Q55.03-44.05 53.11-43.60Q51.20-43.14 49.21-42.81L49.21-42.81Q49.29-42.14 49.33-41.60Q49.37-41.06 49.37-40.56L49.37-40.56Q49.54-38.40 48.87-36.24L48.87-36.24Q53.86-36.16 58.43-35.12Q63.00-34.08 66.08-31.75Z" transform="translate(144.0745999987969 336.05416) " fill="#FFFFFF" stroke="#FFFFFF" stroke-width="0.139" data-glyph-w="72.03729999939846" data-glyph-h="117.78104" data-glyph-ascender="86.69416" data-glyph-descender="-31.08688"></path><path d="M68.57-46.80L68.57-46.80Q67.66-46.63 67.04-46.96Q66.41-47.30 66.00-47.92Q65.58-48.54 65.29-49.29Q65.00-50.04 64.75-50.70L64.75-50.70Q64.17-52.12 63.34-53.53Q62.51-54.94 62.51-56.44L62.51-56.44Q62.51-57.02 62.96-57.44Q63.42-57.85 64.00-57.77L64.00-57.77Q64.83-57.77 65.71-57.27Q66.58-56.77 67.33-56.06Q68.08-55.36 68.70-54.57Q69.32-53.78 69.74-53.11L69.74-53.11Q70.15-52.37 70.49-51.37Q70.82-50.37 70.78-49.41Q70.74-48.46 70.24-47.75Q69.74-47.05 68.57-46.80ZM74.72-6.48L74.72-6.48Q74.89-5.24 74.85-3.99Q74.81-2.74 74.35-1.70Q73.89-0.66 72.90-0.04Q71.90 0.58 70.32 0.58L70.32 0.58Q68.41 0.58 66.87-0.50Q65.33-1.58 64.09-3.24L64.09-3.24Q62.51-1.33 60.22-0.08Q57.93 1.16 55.44 0.75L55.44 0.75Q53.78 0.42 52.53-0.75Q51.29-1.91 51.53-3.74L51.53-3.74Q51.62-4.32 52.03-4.86Q52.45-5.40 53.11-5.32L53.11-5.32Q55.27-4.99 57.19-6.32Q59.10-7.65 60.51-9.56L60.51-9.56Q57.85-15.79 56.73-22.61Q55.61-29.42 55.69-36.66L55.69-36.66Q54.28-36.82 52.99-36.99Q51.70-37.15 50.62-37.32L50.62-37.32Q48.04-37.82 45.63-38.90Q43.22-39.98 41.23-41.64L41.23-41.64Q42.14-38.73 42.56-35.62Q42.97-32.50 42.97-29.34L42.97-29.34Q45.22-29.92 47.42-29.47Q49.62-29.01 51.45-27.80Q53.28-26.60 54.57-24.69Q55.86-22.77 56.19-20.36L56.19-20.36Q56.52-18.04 55.94-15.29Q55.36-12.55 53.99-10.14Q52.61-7.73 50.54-6.03Q48.46-4.32 45.80-4.07L45.80-4.07Q44.72-3.91 43.60-4.70Q42.47-5.49 42.22-6.65L42.22-6.65Q42.22-6.82 42.18-6.90Q42.14-6.98 42.14-7.15L42.14-7.15Q41.73-9.06 42.93-10.35Q44.14-11.64 46.05-11.30L46.05-11.30Q47.05-11.14 47.96-12.14Q48.87-13.13 49.62-14.46Q50.37-15.79 50.87-17.16Q51.37-18.54 51.53-19.12L51.53-19.12Q51.95-21.36 51.29-22.73Q50.62-24.10 49.33-24.89Q48.04-25.68 46.30-26.02Q44.55-26.35 42.81-26.52L42.81-26.52Q42.56-22.28 41.60-18.16Q40.65-14.05 39.15-10.47L39.15-10.47Q38.48-8.98 37.15-8.81Q35.82-8.64 34.66-9.31Q33.50-9.97 32.96-11.26Q32.42-12.55 33.33-13.88L33.33-13.88Q34.99-17.87 36.03-21.82Q37.07-25.77 37.40-30.01L37.40-30.01Q37.74-34.25 37.45-38.28Q37.15-42.31 37.65-46.38L37.65-46.38Q37.74-46.96 38.28-47.13Q38.82-47.30 39.15-46.71L39.15-46.71Q40.06-46.88 40.77-46.51Q41.48-46.13 42.64-45.63L42.64-45.63Q46.71-43.80 51.29-43.39L51.29-43.39Q53.45-43.22 55.94-43.64L55.94-43.64Q56.27-47.21 56.77-50.66Q57.27-54.11 58.02-57.35L58.02-57.35Q58.18-58.02 58.97-57.98Q59.76-57.93 59.85-57.27L59.85-57.27Q60.26-54.03 60.30-50.74Q60.35-47.46 60.43-44.22L60.43-44.22Q62.42-44.39 64.29-44.18Q66.16-43.97 67.58-42.89L67.58-42.89Q68.16-42.47 68.45-41.64Q68.74-40.81 68.24-40.15L68.24-40.15Q66.99-38.48 65.00-37.69Q63.00-36.91 60.76-36.66L60.76-36.66Q60.93-33.91 61.26-31.09L61.26-31.09Q61.76-27.35 62.51-23.77Q63.25-20.20 64.50-16.71L64.50-16.71Q65.42-18.87 66.21-21.07Q66.99-23.27 68.16-25.19L68.16-25.19Q68.41-25.60 68.86-25.52Q69.32-25.43 69.49-25.02L69.49-25.02Q70.24-21.28 69.74-17.21Q69.24-13.13 67.74-9.39L67.74-9.39Q68.74-7.56 69.82-6.61Q70.90-5.65 71.73-6.98L71.73-6.98Q71.98-7.40 72.44-7.56Q72.90-7.73 73.39-7.65Q73.89-7.56 74.27-7.27Q74.64-6.98 74.72-6.48ZM29.26-23.94L29.26-23.94Q30.01-24.60 30.88-24.65Q31.75-24.69 32.46-24.31Q33.16-23.94 33.54-23.19Q33.91-22.44 33.66-21.44L33.66-21.44Q32.83-18.54 30.26-16.46Q27.68-14.38 24.40-13.42Q21.11-12.47 17.70-12.72Q14.30-12.97 11.89-14.71L11.89-14.71Q11.47-14.96 11.60-15.42Q11.72-15.88 12.14-16.04L12.14-16.04Q14.30-16.54 16.33-16.83Q18.37-17.12 20.28-17.87L20.28-17.87Q19.78-18.37 19.70-18.62L19.70-18.62Q18.20-21.20 18.33-24.60Q18.45-28.01 18.79-31.09L18.79-31.09Q15.04-33.66 13.22-37.40L13.22-37.40Q12.72-38.40 13.42-39.40Q14.13-40.40 15.29-39.98L15.29-39.98Q16.46-39.57 17.54-39.07Q18.62-38.57 19.70-38.07L19.70-38.07Q20.12-40.23 20.82-42.22Q21.53-44.22 22.69-45.88L22.69-45.88Q23.02-46.30 23.52-46.21Q24.02-46.13 24.19-45.55L24.19-45.55Q24.85-43.39 24.94-41.06Q25.02-38.73 25.02-36.32L25.02-36.32Q25.93-36.16 26.89-36.20Q27.85-36.24 28.84-36.16L28.84-36.16Q29.76-36.16 30.75-35.74Q31.75-35.33 32.17-34.41L32.17-34.41Q32.42-33.91 32.50-33.50Q32.58-33.08 32.75-32.50L32.75-32.50Q32.92-31.34 32.04-30.30Q31.17-29.26 30.09-28.84L30.09-28.84Q27.85-28.01 25.35-28.43L25.35-28.43Q25.52-26.52 25.68-24.65Q25.85-22.77 25.68-20.95L25.68-20.95Q26.60-21.61 27.47-22.40Q28.34-23.19 29.26-23.94Z" transform="translate(216.11189999819538 336.05416) " fill="#FFFFFF" stroke="#FFFFFF" stroke-width="0.139" data-glyph-w="72.03729999939846" data-glyph-h="117.78104" data-glyph-ascender="86.69416" data-glyph-descender="-31.08688"></path></g></svg></g>
        </g><g id="shape_I14yRV7qIA" class="brand_slogan"  ref="shape_I14yRV7qIA" key="shape_I14yRV7qIA" transform="translate(253.64695151962496,290.84796661683004) rotate(0,325.821972125,149.05645) scale(1,1)" style="cursor:move;display:inline;opacity:1;" filter="">
            <g style="display:inline"><svg xmlns="http://www.w3.org/2000/svg" version="1.1" xmlns:xlink="http://www.w3.org/1999/xlink" width="367.68" height="298.1129" viewBox="0 0 367.68 298.1129" preserveAspectRatio="none" data-parent="shape_I14yRV7qIA"><rect fill="rgba(0,0,0,0)" width="219" height="37" x="37.17" y="130.55645"></rect><g data-width="218.96847" transform="translate(37.185765, 0)"><path d="M14.24-7.69L14.24-0.15Q13.83-0.04 12.97 0.07Q12.12 0.19 11.30 0.19L11.30 0.19Q9.59 0.19 8.73-0.39Q7.88-0.97 7.88-2.82L7.88-2.82L7.88-7.84Q6.95-9.22 5.87-10.89Q4.79-12.56 3.75-14.31Q2.71-16.06 1.82-17.75Q0.93-19.44 0.37-20.85L0.37-20.85Q0.85-21.52 1.69-22.08Q2.53-22.64 3.75-22.64L3.75-22.64Q5.20-22.64 6.11-22.04Q7.03-21.45 7.84-19.81L7.84-19.81L10.93-13.60L11.15-13.60Q11.67-14.76 12.06-15.70Q12.45-16.65 12.82-17.60Q13.20-18.55 13.60-19.57Q14.01-20.59 14.53-21.93L14.53-21.93Q15.20-22.26 16.02-22.45Q16.84-22.64 17.58-22.64L17.58-22.64Q18.88-22.64 19.79-21.95Q20.70-21.26 20.70-19.89L20.70-19.89Q20.70-19.44 20.52-18.81Q20.33-18.18 19.66-16.89Q18.99-15.61 17.71-13.42Q16.43-11.23 14.24-7.69L14.24-7.69Z" transform="translate(0 155.55645) " fill="#ff8c00" stroke="#ff8c00" stroke-width="0.062" data-glyph-w="21.33558" data-glyph-h="74.78604" data-glyph-ascender="44.04645" data-glyph-descender="-30.73959"></path><path d="M1.30-11.30L1.30-11.30Q1.30-14.20 2.21-16.43Q3.12-18.66 4.70-20.16Q6.28-21.67 8.42-22.45Q10.56-23.23 13.05-23.23L13.05-23.23Q15.54-23.23 17.67-22.45Q19.81-21.67 21.41-20.16Q23.01-18.66 23.92-16.43Q24.83-14.20 24.83-11.30L24.83-11.30Q24.83-8.40 23.94-6.15Q23.05-3.90 21.47-2.40Q19.89-0.89 17.73-0.11Q15.57 0.67 13.05 0.67L13.05 0.67Q10.52 0.67 8.36-0.13Q6.21-0.93 4.65-2.45Q3.09-3.98 2.19-6.21Q1.30-8.44 1.30-11.30ZM7.99-11.30L7.99-11.30Q7.99-7.92 9.37-6.24Q10.74-4.57 13.05-4.57L13.05-4.57Q15.39-4.57 16.76-6.24Q18.14-7.92 18.14-11.30L18.14-11.30Q18.14-14.64 16.78-16.32Q15.43-17.99 13.08-17.99L13.08-17.99Q10.78-17.99 9.39-16.34Q7.99-14.68 7.99-11.30Z" transform="translate(21.33558 155.55645) " fill="#ff8c00" stroke="#ff8c00" stroke-width="0.062" data-glyph-w="26.13051" data-glyph-h="74.78604" data-glyph-ascender="44.04645" data-glyph-descender="-30.73959"></path><path d="M22.38-19.77L22.38-8.33Q22.38-6.32 21.69-4.66Q21.00-3.01 19.70-1.84Q18.40-0.67 16.54-0.04Q14.68 0.59 12.34 0.59L12.34 0.59Q10.00 0.59 8.14-0.04Q6.28-0.67 4.98-1.84Q3.68-3.01 2.99-4.66Q2.30-6.32 2.30-8.33L2.30-8.33L2.30-22.53Q2.71-22.60 3.61-22.73Q4.50-22.86 5.32-22.86L5.32-22.86Q6.17-22.86 6.82-22.73Q7.47-22.60 7.92-22.26Q8.36-21.93 8.59-21.34Q8.81-20.74 8.81-19.77L8.81-19.77L8.81-8.44Q8.81-6.65 9.79-5.65Q10.78-4.65 12.34-4.65L12.34-4.65Q13.94-4.65 14.91-5.65Q15.87-6.65 15.87-8.44L15.87-8.44L15.87-22.53Q16.28-22.60 17.17-22.73Q18.06-22.86 18.88-22.86L18.88-22.86Q19.74-22.86 20.39-22.73Q21.04-22.60 21.48-22.26Q21.93-21.93 22.15-21.34Q22.38-20.74 22.38-19.77L22.38-19.77Z" transform="translate(47.46609 155.55645) " fill="#ff8c00" stroke="#ff8c00" stroke-width="0.062" data-glyph-w="24.680880000000002" data-glyph-h="74.78604" data-glyph-ascender="44.04645" data-glyph-descender="-30.73959"></path><path d="M17.99-5.54L17.99-5.54Q17.51-5.13 16.75-4.89Q15.98-4.65 14.98-4.65L14.98-4.65Q13.64-4.65 12.77-4.98Q11.89-5.32 11.63-6.13L11.63-6.13Q10.59-9.40 9.92-11.43Q9.26-13.46 8.88-14.98L8.88-14.98L8.70-14.98Q8.59-12.79 8.53-10.98Q8.47-9.18 8.46-7.47Q8.44-5.76 8.38-4.01Q8.33-2.27 8.21-0.15L8.21-0.15Q7.73 0.04 6.95 0.17Q6.17 0.30 5.39 0.30L5.39 0.30Q3.75 0.30 2.84-0.22Q1.93-0.74 1.93-2.12L1.93-2.12L3.01-21.08Q3.31-21.56 4.31-22.12Q5.32-22.67 7.14-22.67L7.14-22.67Q9.11-22.67 10.22-22.06Q11.34-21.45 11.86-20.07L11.86-20.07Q12.19-19.18 12.58-18.03Q12.97-16.88 13.36-15.65Q13.75-14.42 14.12-13.21Q14.50-12.01 14.79-11.04L14.79-11.04L14.98-11.04Q15.87-14.16 16.76-17.08Q17.66-20.00 18.40-21.97L18.40-21.97Q18.96-22.26 19.83-22.47Q20.70-22.67 21.78-22.67L21.78-22.67Q23.60-22.67 24.76-22.13Q25.91-21.60 26.09-20.59L26.09-20.59Q26.24-19.85 26.41-18.31Q26.58-16.76 26.76-14.83Q26.95-12.90 27.13-10.74Q27.32-8.59 27.49-6.60Q27.65-4.61 27.77-2.96Q27.88-1.30 27.91-0.41L27.91-0.41Q27.28-0.04 26.60 0.13Q25.91 0.30 24.83 0.30L24.83 0.30Q23.42 0.30 22.45-0.19Q21.48-0.67 21.41-2.08L21.41-2.08Q21.19-6.13 21.13-9.37Q21.08-12.60 20.96-14.79L20.96-14.79L20.78-14.79Q20.41-13.34 19.70-11.15Q18.99-8.96 17.99-5.54Z" transform="translate(72.14697000000001 155.55645) " fill="#ff8c00" stroke="#ff8c00" stroke-width="0.062" data-glyph-w="29.62449" data-glyph-h="74.78604" data-glyph-ascender="44.04645" data-glyph-descender="-30.73959"></path><path d="M8.92-19.77L8.92-0.15Q8.51-0.04 7.64 0.07Q6.76 0.19 5.91 0.19L5.91 0.19Q5.06 0.19 4.40 0.06Q3.75-0.07 3.31-0.41Q2.86-0.74 2.64-1.34Q2.42-1.93 2.42-2.90L2.42-2.90L2.42-22.53Q2.82-22.60 3.72-22.73Q4.61-22.86 5.43-22.86L5.43-22.86Q6.28-22.86 6.93-22.73Q7.58-22.60 8.03-22.26Q8.47-21.93 8.70-21.34Q8.92-20.74 8.92-19.77L8.92-19.77Z" transform="translate(101.77146000000002 155.55645) " fill="#ff8c00" stroke="#ff8c00" stroke-width="0.062" data-glyph-w="11.33685" data-glyph-h="74.78604" data-glyph-ascender="44.04645" data-glyph-descender="-30.73959"></path><path d="" transform="translate(113.10831000000002 155.55645) " fill="#ff8c00" stroke="#ff8c00" stroke-width="0.062" data-glyph-w="14.793660000000001" data-glyph-h="37.17" data-glyph-ascender="32.7096" data-glyph-descender="-4.4604"></path><path d="M17.99-5.54L17.99-5.54Q17.51-5.13 16.75-4.89Q15.98-4.65 14.98-4.65L14.98-4.65Q13.64-4.65 12.77-4.98Q11.89-5.32 11.63-6.13L11.63-6.13Q10.59-9.40 9.92-11.43Q9.26-13.46 8.88-14.98L8.88-14.98L8.70-14.98Q8.59-12.79 8.53-10.98Q8.47-9.18 8.46-7.47Q8.44-5.76 8.38-4.01Q8.33-2.27 8.21-0.15L8.21-0.15Q7.73 0.04 6.95 0.17Q6.17 0.30 5.39 0.30L5.39 0.30Q3.75 0.30 2.84-0.22Q1.93-0.74 1.93-2.12L1.93-2.12L3.01-21.08Q3.31-21.56 4.31-22.12Q5.32-22.67 7.14-22.67L7.14-22.67Q9.11-22.67 10.22-22.06Q11.34-21.45 11.86-20.07L11.86-20.07Q12.19-19.18 12.58-18.03Q12.97-16.88 13.36-15.65Q13.75-14.42 14.12-13.21Q14.50-12.01 14.79-11.04L14.79-11.04L14.98-11.04Q15.87-14.16 16.76-17.08Q17.66-20.00 18.40-21.97L18.40-21.97Q18.96-22.26 19.83-22.47Q20.70-22.67 21.78-22.67L21.78-22.67Q23.60-22.67 24.76-22.13Q25.91-21.60 26.09-20.59L26.09-20.59Q26.24-19.85 26.41-18.31Q26.58-16.76 26.76-14.83Q26.95-12.90 27.13-10.74Q27.32-8.59 27.49-6.60Q27.65-4.61 27.77-2.96Q27.88-1.30 27.91-0.41L27.91-0.41Q27.28-0.04 26.60 0.13Q25.91 0.30 24.83 0.30L24.83 0.30Q23.42 0.30 22.45-0.19Q21.48-0.67 21.41-2.08L21.41-2.08Q21.19-6.13 21.13-9.37Q21.08-12.60 20.96-14.79L20.96-14.79L20.78-14.79Q20.41-13.34 19.70-11.15Q18.99-8.96 17.99-5.54Z" transform="translate(127.90197000000002 155.55645) " fill="#ff8c00" stroke="#ff8c00" stroke-width="0.062" data-glyph-w="29.62449" data-glyph-h="74.78604" data-glyph-ascender="44.04645" data-glyph-descender="-30.73959"></path><path d="M7.21-21.86L7.21-21.86Q7.84-22.23 9.13-22.56Q10.41-22.90 11.71-22.90L11.71-22.90Q13.57-22.90 15.00-22.36Q16.43-21.82 16.84-20.67L16.84-20.67Q17.51-18.73 18.29-16.17Q19.07-13.60 19.85-10.87Q20.63-8.14 21.37-5.48Q22.12-2.82 22.67-0.78L22.67-0.78Q22.23-0.26 21.34 0.06Q20.44 0.37 19.22 0.37L19.22 0.37Q18.32 0.37 17.71 0.22Q17.10 0.07 16.71-0.22Q16.32-0.52 16.08-1.00Q15.83-1.49 15.65-2.12L15.65-2.12L14.98-4.68L8.25-4.68Q7.95-3.57 7.66-2.38Q7.36-1.19 7.06-0.07L7.06-0.07Q6.54 0.11 5.97 0.24Q5.39 0.37 4.57 0.37L4.57 0.37Q2.68 0.37 1.77-0.28Q0.85-0.93 0.85-2.08L0.85-2.08Q0.85-2.60 1.00-3.12Q1.15-3.64 1.34-4.35L1.34-4.35Q1.60-5.35 2.06-6.84Q2.53-8.33 3.09-10.05Q3.64-11.78 4.27-13.60Q4.91-15.43 5.46-17.04Q6.02-18.66 6.49-19.92Q6.95-21.19 7.21-21.86ZM11.89-17.06L11.67-17.06Q11.15-15.50 10.50-13.59Q9.85-11.67 9.33-9.70L9.33-9.70L13.94-9.70Q13.42-11.71 12.88-13.62Q12.34-15.54 11.89-17.06L11.89-17.06Z" transform="translate(157.52646000000001 155.55645) " fill="#ff8c00" stroke="#ff8c00" stroke-width="0.062" data-glyph-w="23.305590000000002" data-glyph-h="74.78604" data-glyph-ascender="44.04645" data-glyph-descender="-30.73959"></path><path d="M15.83 0.11L5.87 0.11Q4.27 0.11 3.35-0.82Q2.42-1.75 2.42-3.35L2.42-3.35L2.42-22.56Q2.82-22.64 3.72-22.77Q4.61-22.90 5.43-22.90L5.43-22.90Q6.28-22.90 6.93-22.77Q7.58-22.64 8.03-22.30Q8.47-21.97 8.70-21.37Q8.92-20.78 8.92-19.81L8.92-19.81L8.92-5.13L17.43-5.13Q17.69-4.72 17.92-4.03Q18.14-3.35 18.14-2.60L18.14-2.60Q18.14-1.12 17.51-0.50Q16.88 0.11 15.83 0.11L15.83 0.11Z" transform="translate(180.83205 155.55645) " fill="#ff8c00" stroke="#ff8c00" stroke-width="0.062" data-glyph-w="19.06821" data-glyph-h="74.78604" data-glyph-ascender="44.04645" data-glyph-descender="-30.73959"></path><path d="M15.83 0.11L5.87 0.11Q4.27 0.11 3.35-0.82Q2.42-1.75 2.42-3.35L2.42-3.35L2.42-22.56Q2.82-22.64 3.72-22.77Q4.61-22.90 5.43-22.90L5.43-22.90Q6.28-22.90 6.93-22.77Q7.58-22.64 8.03-22.30Q8.47-21.97 8.70-21.37Q8.92-20.78 8.92-19.81L8.92-19.81L8.92-5.13L17.43-5.13Q17.69-4.72 17.92-4.03Q18.14-3.35 18.14-2.60L18.14-2.60Q18.14-1.12 17.51-0.50Q16.88 0.11 15.83 0.11L15.83 0.11Z" transform="translate(199.90026 155.55645) " fill="#ff8c00" stroke="#ff8c00" stroke-width="0.062" data-glyph-w="19.06821" data-glyph-h="74.78604" data-glyph-ascender="44.04645" data-glyph-descender="-30.73959"></path></g></svg></g>
        </g>
  </svg>
